<?xml version="1.0" encoding="UTF-8" standalone="no"?>
<svg
   xmlns:dc="http://purl.org/dc/elements/1.1/"
   xmlns:cc="http://creativecommons.org/ns#"
   xmlns:rdf="http://www.w3.org/1999/02/22-rdf-syntax-ns#"
   xmlns:svg="http://www.w3.org/2000/svg"
   xmlns="http://www.w3.org/2000/svg"
   xmlns:sodipodi="http://sodipodi.sourceforge.net/DTD/sodipodi-0.dtd"
   xmlns:inkscape="http://www.inkscape.org/namespaces/inkscape"
   version="1.1"
   id="Layer_1"
   x="0px"
   y="0px"
   width="100.0px"
   height="100px"
   viewBox="14.173 -28.346 283.46 382.671"
   enable-background="new 0 0 283.46 283.46"
   xml:space="preserve"
   inkscape:version="0.48.5 r10040"
   sodipodi:docname="noun_3018_cc.svg"><metadata
     id="metadata33"><rdf:RDF><cc:Work
         rdf:about=""><dc:format>image/svg+xml</dc:format><dc:type
           rdf:resource="http://purl.org/dc/dcmitype/StillImage" /></cc:Work></rdf:RDF></metadata><defs
     id="defs31" /><sodipodi:namedview
     pagecolor="#ffffff"
     bordercolor="#666666"
     borderopacity="1"
     objecttolerance="10"
     gridtolerance="10"
     guidetolerance="10"
     inkscape:pageopacity="0"
     inkscape:pageshadow="2"
     inkscape:window-width="655"
     inkscape:window-height="480"
     id="namedview29"
     showgrid="false"
     showguides="true"
     inkscape:guide-bbox="true"
     inkscape:zoom="2.36"
     inkscape:cx="50"
     inkscape:cy="50"
     inkscape:window-x="1985"
     inkscape:window-y="24"
     inkscape:window-maximized="0"
     inkscape:current-layer="Layer_1" /><g
     id="g3"
     transform="matrix(1.9494119,0,0,1.9494119,-120.38466,-110.32487)"><g
       id="g5"><path
         d="m 207.451,177.23 c -1.563,1.34 -3.463,1.949 -5.361,1.949 -2.407,0 -4.742,-0.995 -6.429,-3.016 L 105.3,67.93 c -2.96,-3.58 -2.458,-8.881 1.057,-11.841 3.584,-2.965 8.825,-2.458 11.841,1.056 l 35.584,42.672 c 5.748,-1.62 12.115,0.167 16.197,5.083 4.072,4.854 4.682,11.506 2.062,16.868 l 36.478,43.673 c 3.004,3.523 2.507,8.824 -1.068,11.789 z"
         id="path7"
         inkscape:connector-curvature="0" /></g><g
       id="g9"><path
         d="M 182.927,220.797 H 101.563 L 89.772,199.623 c 0.67,-0.396 1.341,-0.895 1.955,-1.392 4.25,-3.575 6.875,-8.611 7.373,-14.136 0.335,-3.636 -0.274,-7.211 -1.731,-10.439 l 8.267,-6.865 c 23.286,24.515 58.423,31.887 88.97,20.99 L 93.738,66.919 c -16.253,28.039 -15.192,63.897 4.742,91.266 l -8.312,6.921 c -3.412,-2.397 -7.49,-3.682 -11.791,-3.682 -4.859,0 -9.607,1.731 -13.344,4.859 -8.769,7.312 -9.947,20.493 -2.63,29.268 3.966,4.752 9.774,7.474 15.974,7.474 h 0.452 l 9.938,17.772 h -7.322 c -4.631,0 -8.378,3.736 -8.378,8.367 0,4.631 3.747,8.389 8.378,8.389 h 101.481 c 4.641,0 8.388,-3.758 8.388,-8.389 0,-4.631 -3.747,-8.367 -8.387,-8.367 z M 71.006,188.401 c -3.402,-4.083 -2.849,-10.166 1.229,-13.578 1.731,-1.452 3.849,-2.224 6.144,-2.224 2.843,0 5.53,1.279 7.373,3.453 1.681,2.011 2.458,4.468 2.234,7.037 -0.224,2.569 -1.452,4.864 -3.463,6.53 -3.966,3.301 -10.222,2.742 -13.517,-1.218 z"
         id="path11"
         inkscape:connector-curvature="0" /></g><g
       id="g13"><path
         d="m 216.013,130.207 c -0.731,0 -1.463,-0.147 -2.174,-0.442 -2.843,-1.208 -4.174,-4.483 -2.965,-7.327 6.307,-14.872 4.834,-29.663 -4.134,-41.657 -10.53,-14.075 -29.348,-21.397 -49.182,-19.117 -3.082,0.355 -5.824,-1.848 -6.18,-4.91 -0.354,-3.062 1.844,-5.834 4.91,-6.185 23.703,-2.722 46.501,6.275 59.398,23.524 11.282,15.085 13.283,34.299 5.474,52.706 -0.902,2.133 -2.974,3.408 -5.147,3.408 z"
         id="path15"
         inkscape:connector-curvature="0" /></g><g
       id="g17"><path
         d="m 196.271,127.77 c -0.7,0 -1.401,-0.127 -2.082,-0.396 -2.854,-1.147 -4.255,-4.392 -3.117,-7.256 3.29,-8.226 2.336,-16.355 -2.671,-22.91 -5.758,-7.535 -15.954,-11.465 -26.657,-10.221 -3.057,0.35 -5.829,-1.848 -6.175,-4.915 -0.365,-3.062 1.838,-5.834 4.895,-6.185 14.562,-1.676 28.679,3.895 36.813,14.542 7.383,9.658 8.906,21.986 4.174,33.827 -0.875,2.188 -2.976,3.514 -5.18,3.514 z"
         id="path19"
         inkscape:connector-curvature="0" /></g><g
       id="g21"><path
         stroke-miterlimit="10"
         d="M 194.585,44.354"
         id="path23"
         inkscape:connector-curvature="0"
         style="stroke:#000000;stroke-width:3;stroke-linecap:round;stroke-miterlimit:10" /></g></g></svg>