<?xml version="1.0" ?><!DOCTYPE svg  PUBLIC '-//W3C//DTD SVG 1.1//EN'  'http://www.w3.org/Graphics/SVG/1.1/DTD/svg11.dtd'><svg enable-background="new 0 0 512 512" height="512px" id="Layer_1" version="1.1" viewBox="0 0 512 512" width="512px" xml:space="preserve" xmlns="http://www.w3.org/2000/svg" xmlns:xlink="http://www.w3.org/1999/xlink"><g><path d="M512,256.002C512,397.386,397.386,512,256.002,512S0,397.386,0,256.002S114.619,0,256.002,0    S512,114.619,512,256.002z" fill="#77B3D4"/><g><g opacity="0.2"><path d="M281.558,270.314c-14.672-0.699-29.63-2.233-43.851-5.912c-13.944-3.606-27.19-9.953-40.025-16.387      c-0.697-0.35-1.387-0.718-2.08-1.078c-9.8,3.347-20.051,5.039-30.755,5.072c-8.455-1.136-16.909-2.271-25.364-3.408      c-5.388-1.481-10.602-3.467-15.608-5.862c0.4,33.085,13.213,66.046,38.46,91.29c7.029,7.034,14.675,13.065,22.738,18.169v50.732      h-15.575c-4.588,0-8.319,4.147-8.713,9.413h-1.962c-6.681,0-12.1,5.42-12.1,12.105v14.609h104.342v-16.28      c0-5.762-4.672-10.435-10.435-10.435h-4.134v-0.52c0-4.908-3.396-8.894-7.581-8.894h-15.384v-37.223      c45.318,15.13,97.243,4.913,133.617-30.694c7.938-7.939-8.845-34.905-35.199-66.011      C301.787,270.155,291.59,270.792,281.558,270.314z"/></g><rect fill="#B5CACC" height="94.345" width="28.459" x="185.074" y="304.777"/><path d="M162.335,324.528c50.983,50.983,133.418,51.294,184.814,0.983     c23.142-23.142-163.663-207.933-185.793-185.793C111.042,191.105,111.353,273.548,162.335,324.528z" fill="#EDEDED"/><path d="M342.612,321.317c-4.89,4.89-30.959-6.746-62.805-30.509c-0.825-0.594-1.623-1.226-2.444-1.852     c-12.267-9.302-25.359-20.377-38.337-32.954c-1.619-1.563-3.242-3.155-4.866-4.778c-1.624-1.624-3.248-3.276-4.807-4.896     c-12.749-13.147-23.939-26.385-33.33-38.79c-0.626-0.826-1.22-1.652-1.818-2.45c-23.536-31.642-35.061-57.483-30.166-62.35     c5.716-5.749,36.369,15.194,73.763,49.229c0.826,0.742,1.619,1.484,2.445,2.227c7.433,6.83,15.088,14.113,22.854,21.824     c1.058,1.025,2.078,2.051,3.132,3.1c1.053,1.053,2.073,2.078,3.104,3.136c7.539,7.595,14.712,15.106,21.397,22.391     c0.742,0.825,1.512,1.624,2.222,2.449C327.247,284.688,348.366,315.569,342.612,321.317z" fill="#B5CACC"/><path d="M324.314,161.069l-7.084,7.878l-1.081,1.225l-1.447,1.597l-3.049,3.382l-42.316,47.104l-30.311,33.748     c-1.619-1.563-3.242-3.155-4.866-4.778c-1.624-1.624-3.248-3.276-4.807-4.896l33.748-30.31l48.153-43.23l1.508-1.364l3.442-3.071     l0.482-0.427L324.314,161.069z" fill="#4F5D73"/><g opacity="0.2"><path d="M327.644,177.033c0,6.74-5.46,12.211-12.21,12.211c-0.72,0-1.43-0.101-2.12-0.221l-18.21,60.44      c-0.71-0.78-1.43-1.58-2.149-2.37c-0.021-0.03-0.05-0.05-0.07-0.08l17.69-58.79c-0.5-0.22-0.971-0.5-1.431-0.78l-35.35,39.34      c-1.47-1.51-2.96-3.02-4.46-4.529c-0.41-0.42-0.811-0.83-1.21-1.24l39.04-35.05c-0.63-0.59-1.21-1.22-1.71-1.931l-57.5,17.341      c-0.8-0.761-1.59-1.5-2.391-2.24l58.53-17.64c-0.55-1.381-0.87-2.881-0.87-4.461c0-6.739,5.46-12.21,12.21-12.21      S327.644,170.293,327.644,177.033z"/><path d="M315.174,74.566c-3.424,0-6.198,2.774-6.198,6.198s2.774,6.203,6.198,6.203c51.127,0,92.721,41.588,92.721,92.706      c0,3.424,2.77,6.203,6.193,6.203c3.419,0,6.198-2.779,6.198-6.203C420.287,121.726,373.131,74.566,315.174,74.566z"/><path d="M313.304,104.068c-3.419,0-6.193,2.779-6.193,6.194c0,3.424,2.774,6.203,6.193,6.203      c35.052,0,63.575,28.514,63.575,63.57c0,3.414,2.77,6.193,6.193,6.193c3.42,0,6.194-2.779,6.194-6.193      C389.267,138.15,355.19,104.068,313.304,104.068z"/><path d="M309.421,131.552c-3.424,0-6.198,2.774-6.198,6.189c0,3.424,2.774,6.198,6.198,6.198      c21.212,0,38.461,17.259,38.461,38.471c0,3.424,2.779,6.198,6.198,6.198c3.425,0,6.194-2.774,6.194-6.198      C360.275,154.37,337.462,131.552,309.421,131.552z"/></g><polygon fill="#4F5D73" points="196.023,207.539 240.247,194.195 311.221,172.789 311.254,172.789 312.479,172.417      314.702,171.768 315.75,171.453 317.8,170.826 317.23,168.947 316.974,168.121 316.714,168.209 316.205,168.353 313.444,169.179      237.801,191.968 194.205,205.088    "/><polygon fill="#4F5D73" points="279.807,290.808 292.956,247.094 315.75,171.453 316.121,170.2 316.149,170.171 316.714,168.209      316.803,167.955 316.687,167.926 314.07,167.128 313.444,169.179 312.79,171.397 312.762,171.424 312.479,172.417      311.653,175.15 290.734,244.645 277.363,288.957    "/><g><path clip-rule="evenodd" d="M420.287,170.171c0-57.947-47.155-105.107-105.112-105.107      c-3.424,0-6.198,2.774-6.198,6.198s2.774,6.203,6.198,6.203c51.127,0,92.721,41.589,92.721,92.706      c0,3.424,2.77,6.203,6.193,6.203C417.507,176.375,420.287,173.595,420.287,170.171z" fill="#D0D7D8" fill-rule="evenodd"/><path clip-rule="evenodd" d="M389.267,170.534c0-41.886-34.077-75.967-75.963-75.967      c-3.419,0-6.193,2.778-6.193,6.193c0,3.424,2.774,6.203,6.193,6.203c35.052,0,63.575,28.515,63.575,63.57      c0,3.415,2.77,6.193,6.193,6.193C386.493,176.727,389.267,173.949,389.267,170.534z" fill="#D0D7D8" fill-rule="evenodd"/><path clip-rule="evenodd" d="M360.275,172.909c0-28.041-22.813-50.857-50.854-50.857      c-3.424,0-6.198,2.774-6.198,6.188c0,3.424,2.774,6.198,6.198,6.198c21.212,0,38.461,17.259,38.461,38.471      c0,3.425,2.779,6.198,6.198,6.198C357.505,179.107,360.275,176.333,360.275,172.909z" fill="#D0D7D8" fill-rule="evenodd"/></g><circle cx="315.434" cy="167.532" fill="#4F5D73" r="12.211"/><path d="M236.498,416.195h-75.79v-12.453c0-5.692,3.938-10.313,8.792-10.313h59.417     c4.186,0,7.581,3.985,7.581,8.895V416.195z" fill="#45CCD9"/><path d="M251.066,429.556H146.724v-14.609c0-6.686,5.419-12.104,12.104-12.104h81.803     c5.763,0,10.435,4.672,10.435,10.435V429.556z" fill="#3A4454"/></g></g></svg>