<?xml version="1.0" encoding="UTF-8" standalone="no"?>
<svg
   xmlns:dc="http://purl.org/dc/elements/1.1/"
   xmlns:cc="http://creativecommons.org/ns#"
   xmlns:rdf="http://www.w3.org/1999/02/22-rdf-syntax-ns#"
   xmlns:svg="http://www.w3.org/2000/svg"
   xmlns="http://www.w3.org/2000/svg"
   xmlns:sodipodi="http://sodipodi.sourceforge.net/DTD/sodipodi-0.dtd"
   xmlns:inkscape="http://www.inkscape.org/namespaces/inkscape"
   version="1.1"
   id="Your_Icon"
   x="0px"
   y="0px"
   width="100px"
   height="100px"
   viewBox="5.0 -10.0 100.0 135.0"
   enable-background="new 0 0 100 100"
   xml:space="preserve"
   inkscape:version="0.48.5 r10040"
   sodipodi:docname="website.svg"><metadata
     id="metadata17"><rdf:RDF><cc:Work
         rdf:about=""><dc:format>image/svg+xml</dc:format><dc:type
           rdf:resource="http://purl.org/dc/dcmitype/StillImage" /><dc:title></dc:title></cc:Work></rdf:RDF></metadata><defs
     id="defs15" /><sodipodi:namedview
     pagecolor="#ffffff"
     bordercolor="#666666"
     borderopacity="1"
     objecttolerance="10"
     gridtolerance="10"
     guidetolerance="10"
     inkscape:pageopacity="0"
     inkscape:pageshadow="2"
     inkscape:window-width="927"
     inkscape:window-height="1028"
     id="namedview13"
     showgrid="false"
     inkscape:zoom="3.337544"
     inkscape:cx="64.033495"
     inkscape:cy="60.844569"
     inkscape:window-x="992"
     inkscape:window-y="24"
     inkscape:window-maximized="0"
     inkscape:current-layer="text2994" /><path
     d="m 55,-7.663413 c -28.292899,0 -52.4539253,17.937888 -61.7220505,43.040843 l 10.1224163,0 c 0.7111249,-1.609909 1.4521991,-3.204708 2.3042899,-4.732024 l 19.5041683,0 c -0.556069,1.547759 -1.06011,3.140834 -1.522477,4.732024 l 6.501389,0 c 0.505689,-1.599522 1.036585,-3.185225 1.645922,-4.732024 l 20.039091,0 0,4.732024 6.254502,0 0,-4.732024 20.039092,0 c 0.609336,1.547098 1.140232,3.13241 1.645922,4.732024 l 6.501389,0 C 85.85138,33.78624 85.346949,32.193165 84.791176,30.645406 l 19.504174,0 c 0.85208,1.527316 1.59308,3.122204 2.30429,4.732024 l 10.12241,0 C 107.45393,10.274475 83.292899,-7.663413 55,-7.663413 z M 42.490998,3.0762238 C 36.421904,9.1146206 31.426013,16.396935 27.760002,24.432053 l -17.981691,0 C 17.673102,13.85353 29.214126,6.1034615 42.490998,3.0762238 z m 9.381751,0 0,21.3558292 -17.199878,0 C 38.932346,16.05343 44.757058,8.7082611 51.872749,3.0762238 z m 6.254502,0 C 65.241479,8.7082611 71.067656,16.054892 75.327129,24.432053 l -17.199878,0 0,-21.3558292 z m 9.381751,0 C 80.785874,6.1034615 92.326897,13.85353 100.22169,24.432053 l -17.981692,0 C 78.573987,16.396935 73.578096,9.1146206 67.509002,3.0762238 z M -7.7096033,78.006793 C 0.74563528,104.57513 25.664275,123.88685 55,123.88685 c 29.335725,0 54.25437,-19.31172 62.7096,-45.880057 l -9.95782,0 c -0.98417,2.596398 -2.11816,5.131318 -3.45643,7.530091 l -19.463026,0 c 0.874699,-2.448968 1.622526,-4.976156 2.263142,-7.530091 l -6.460241,0 c -0.700121,2.563143 -1.508776,5.092862 -2.468882,7.530091 l -20.039092,0 0,-7.530091 -6.254502,0 0,7.530091 -20.039091,0 c -0.954373,-2.436287 -1.771393,-4.968487 -2.468882,-7.530091 l -6.460242,0 c 0.640604,2.553935 1.388912,5.081123 2.263141,7.530091 l -19.4630193,0 C 4.3663781,83.138111 3.2324502,80.603191 2.2482208,78.006793 l -9.9578241,0 z m 17.4467663,13.743443 18.022839,0 C 31.426013,99.80143 36.421905,107.06767 42.490998,113.10606 29.196584,110.07883 17.64657,102.34484 9.737163,91.750236 z m 24.89456,0 17.241026,0 0,21.396974 C 44.742442,107.4991 38.889736,100.14493 34.631723,91.750236 z m 23.495528,0 17.199878,0 C 71.082271,100.12886 65.257558,107.45794 58.127251,113.10606 l 0,-21.355824 z m 24.112747,0 18.022842,0 C 92.35197,102.34485 80.801955,110.07883 67.509002,113.10606 73.578096,107.06767 78.573987,99.80143 82.239998,91.750236 z"
     id="path7"
     inkscape:connector-curvature="0" /><g
     style="font-size:55.14691925px;font-style:normal;font-variant:normal;font-weight:normal;font-stretch:normal;line-height:125%;letter-spacing:0px;word-spacing:0px;fill:#000000;fill-opacity:1;stroke:none;font-family:Lato;-inkscape-font-specification:Lato"
     id="text2994"><path
       d="m -9.0479768,42.855324 3.8602843,0 c 0.3860233,2.8e-5 0.7077133,0.101131 0.9650711,0.303309 0.2757286,0.202232 0.4595515,0.441202 0.5514692,0.716909 L 1.678099,61.853438 c 0.1470466,0.643389 0.2849138,1.277578 0.4136019,1.902569 0.1286639,0.606622 0.2389577,1.213238 0.3308815,1.819848 0.1470459,-0.60661 0.3124865,-1.213226 0.4963222,-1.819848 0.18381,-0.624991 0.3768241,-1.25918 0.5790427,-1.902569 L 9.3986677,43.765249 c 0.091892,-0.275708 0.2481415,-0.505486 0.4687488,-0.689337 0.2389495,-0.183795 0.5238755,-0.275706 0.8547775,-0.275734 l 2.15073,0 c 0.367622,2.8e-5 0.67093,0.09194 0.909924,0.275734 0.238946,0.183851 0.404386,0.413629 0.496322,0.689337 l 5.762853,18.088189 c 0.183793,0.643389 0.358425,1.277578 0.523896,1.902569 0.16541,0.625005 0.321659,1.240811 0.468749,1.847422 0.110262,-0.606611 0.229747,-1.213226 0.358455,-1.819849 0.147027,-0.62499 0.303276,-1.268371 0.468748,-1.930142 l 5.459545,-17.977896 c 0.09188,-0.294089 0.266506,-0.533059 0.523896,-0.716909 0.257314,-0.202178 0.560622,-0.303281 0.909924,-0.303309 l 3.694844,0 -9.044095,27.931915 -3.887858,0 c -0.477969,0 -0.80885,-0.312499 -0.992644,-0.937498 L 12.349028,50.906775 c -0.147081,-0.422773 -0.266566,-0.845566 -0.358455,-1.268379 -0.09193,-0.441154 -0.183845,-0.873138 -0.275735,-1.295953 -0.09193,0.422815 -0.193035,0.854799 -0.303308,1.295953 -0.09193,0.441196 -0.202226,0.873179 -0.330881,1.295952 L 4.7938999,69.849741 C 4.6284446,70.47474 4.2607988,70.787239 3.6909615,70.787239 l -3.69484358,0 -9.04409472,-27.931915"
       style=""
       id="path3037" /><path
       d="m 34.250973,42.855324 3.860285,0 c 0.386023,2.8e-5 0.707713,0.101131 0.965071,0.303309 0.275728,0.202232 0.459551,0.441202 0.551469,0.716909 l 5.349251,17.977896 c 0.147047,0.643389 0.284914,1.277578 0.413602,1.902569 0.128664,0.606622 0.238958,1.213238 0.330882,1.819848 0.147045,-0.60661 0.312486,-1.213226 0.496322,-1.819848 0.18381,-0.624991 0.376824,-1.25918 0.579042,-1.902569 l 5.900721,-18.088189 c 0.09189,-0.275708 0.248141,-0.505486 0.468749,-0.689337 0.23895,-0.183795 0.523875,-0.275706 0.854777,-0.275734 l 2.15073,0 c 0.367623,2.8e-5 0.67093,0.09194 0.909924,0.275734 0.238946,0.183851 0.404387,0.413629 0.496322,0.689337 l 5.762853,18.088189 c 0.183793,0.643389 0.358425,1.277578 0.523896,1.902569 0.16541,0.625005 0.32166,1.240811 0.468749,1.847422 0.110263,-0.606611 0.229747,-1.213226 0.358455,-1.819849 0.147027,-0.62499 0.303276,-1.268371 0.468749,-1.930142 l 5.459545,-17.977896 c 0.09187,-0.294089 0.266506,-0.533059 0.523895,-0.716909 0.257315,-0.202178 0.560622,-0.303281 0.909925,-0.303309 l 3.694843,0 -9.044095,27.931915 -3.887857,0 c -0.477969,0 -0.808851,-0.312499 -0.992645,-0.937498 L 55.647978,50.906775 c -0.147081,-0.422773 -0.266565,-0.845566 -0.358455,-1.268379 -0.09193,-0.441154 -0.183845,-0.873138 -0.275735,-1.295953 -0.09193,0.422815 -0.193035,0.854799 -0.303308,1.295953 -0.09193,0.441196 -0.202226,0.873179 -0.330881,1.295952 L 48.09285,69.849741 c -0.165455,0.624999 -0.533101,0.937498 -1.102938,0.937498 l -3.694844,0 -9.044095,-27.931915"
       style=""
       id="path3039" /><path
       d="m 77.549924,42.855324 3.860284,0 c 0.386023,2.8e-5 0.707713,0.101131 0.965071,0.303309 0.275729,0.202232 0.459551,0.441202 0.551469,0.716909 l 5.349251,17.977896 c 0.147047,0.643389 0.284914,1.277578 0.413602,1.902569 0.128664,0.606622 0.238958,1.213238 0.330882,1.819848 0.147046,-0.60661 0.312486,-1.213226 0.496322,-1.819848 0.18381,-0.624991 0.376824,-1.25918 0.579043,-1.902569 l 5.90072,-18.088189 c 0.09189,-0.275708 0.248142,-0.505486 0.468749,-0.689337 0.23895,-0.183795 0.523875,-0.275706 0.854777,-0.275734 l 2.15073,0 c 0.367623,2.8e-5 0.670926,0.09194 0.909926,0.275734 0.23894,0.183851 0.40438,0.413629 0.49632,0.689337 l 5.76285,18.088189 c 0.1838,0.643389 0.35843,1.277578 0.5239,1.902569 0.16541,0.625005 0.32166,1.240811 0.46875,1.847422 0.11026,-0.606611 0.22975,-1.213226 0.35845,-1.819849 0.14703,-0.62499 0.30328,-1.268371 0.46875,-1.930142 l 5.45955,-17.977896 c 0.0919,-0.294089 0.2665,-0.533059 0.52389,-0.716909 0.25732,-0.202178 0.56062,-0.303281 0.90993,-0.303309 l 3.69484,0 -9.04409,27.931915 -3.88786,0 c -0.47797,0 -0.80885,-0.312499 -0.99265,-0.937498 L 98.946928,50.906775 c -0.14708,-0.422773 -0.266565,-0.845566 -0.358455,-1.268379 -0.09193,-0.441154 -0.183845,-0.873138 -0.275734,-1.295953 -0.09193,0.422815 -0.193036,0.854799 -0.303308,1.295953 -0.09193,0.441196 -0.202227,0.873179 -0.330882,1.295952 L 91.3918,69.849741 c -0.165455,0.624999 -0.533101,0.937498 -1.102938,0.937498 l -3.694844,0 -9.044094,-27.931915"
       style=""
       id="path3041" /></g></svg>