<?xml version="1.0" encoding="UTF-8" standalone="no"?>
<svg
   xmlns:dc="http://purl.org/dc/elements/1.1/"
   xmlns:cc="http://creativecommons.org/ns#"
   xmlns:rdf="http://www.w3.org/1999/02/22-rdf-syntax-ns#"
   xmlns:svg="http://www.w3.org/2000/svg"
   xmlns="http://www.w3.org/2000/svg"
   xmlns:sodipodi="http://sodipodi.sourceforge.net/DTD/sodipodi-0.dtd"
   xmlns:inkscape="http://www.inkscape.org/namespaces/inkscape"
   version="1.1"
   id="Capa_1"
   x="0px"
   y="0px"
   width="80"
   height="80"
   viewBox="5 -10 80.000001 108"
   enable-background="new 0 0 100 100"
   xml:space="preserve"
   inkscape:version="0.48.5 r10040"
   sodipodi:docname="whatconference_transparent.svg"><metadata
     id="metadata14"><rdf:RDF><cc:Work
         rdf:about=""><dc:format>image/svg+xml</dc:format><dc:type
           rdf:resource="http://purl.org/dc/dcmitype/StillImage" /><dc:title></dc:title></cc:Work></rdf:RDF></metadata><defs
     id="defs12" /><sodipodi:namedview
     pagecolor="#ffffff"
     bordercolor="#666666"
     borderopacity="1"
     objecttolerance="10"
     gridtolerance="10"
     guidetolerance="10"
     inkscape:pageopacity="0"
     inkscape:pageshadow="2"
     inkscape:window-width="1855"
     inkscape:window-height="1056"
     id="namedview10"
     showgrid="false"
     inkscape:zoom="6.675088"
     inkscape:cx="34.052431"
     inkscape:cy="29.754321"
     inkscape:window-x="1985"
     inkscape:window-y="24"
     inkscape:window-maximized="1"
     inkscape:current-layer="Capa_1"
     fit-margin-top="0"
     fit-margin-left="0"
     fit-margin-right="0"
     fit-margin-bottom="0" /><path
     style="fill:#333333;fill-opacity:1;stroke:#353434;stroke-width:0;stroke-linejoin:round;stroke-miterlimit:4;stroke-opacity:1;stroke-dasharray:none"
     d="m 3.107813,-9.746875 0,107.704688 23.920313,-23.920313 59.864062,0 0,-83.784375 -83.784375,0 z"
     id="path3007" /><path
     style="fill:#ffffff;fill-opacity:1;stroke:#353434;stroke-width:0;stroke-linejoin:round;stroke-miterlimit:4;stroke-opacity:1;stroke-dasharray:none"
     d="m 37.321876,-1.2671875 c 1.476624,0 2.966059,0.56137104 4.092187,1.6875 0.602334,0.6062274 1.028712,1.310377 1.307813,2.0671875 L 35.339063,9.8703125 C 34.584848,9.5912149 33.878101,9.1687283 33.271875,8.5625 c -2.252257,-2.2509589 -2.252257,-5.8938241 0,-8.1421875 1.126129,-1.12612896 2.573376,-1.6875 4.050001,-1.6875 z"
     id="path3005" /><path
     style="fill:#ffffff;fill-opacity:1;stroke:#353434;stroke-width:0;stroke-linejoin:round;stroke-miterlimit:4;stroke-opacity:1;stroke-dasharray:none"
     d="M 43.354688,4.0484375 55.082813,19.953125 52.635938,22.4 l -6.665625,-4.935938 0,12.825 22.359375,-7.551562 3.20625,9.407813 -7.889062,2.657812 0,29.278125 -37.29375,0 0,-16.664062 -4.682813,1.603125 -3.20625,-9.450001 24.510937,-8.268749 0,-16.03125 -6.243749,-4.598438 6.623437,-6.6234375 z"
     id="rect2991" /></svg>