<?xml version="1.0" encoding="UTF-8" standalone="no"?>
<svg
   xmlns:dc="http://purl.org/dc/elements/1.1/"
   xmlns:cc="http://creativecommons.org/ns#"
   xmlns:rdf="http://www.w3.org/1999/02/22-rdf-syntax-ns#"
   xmlns:svg="http://www.w3.org/2000/svg"
   xmlns="http://www.w3.org/2000/svg"
   xmlns:sodipodi="http://sodipodi.sourceforge.net/DTD/sodipodi-0.dtd"
   xmlns:inkscape="http://www.inkscape.org/namespaces/inkscape"
   version="1.1"
   id="Capa_1"
   x="0px"
   y="0px"
   width="80"
   height="80"
   viewBox="5 -10 80.000001 108"
   enable-background="new 0 0 100 100"
   xml:space="preserve"
   inkscape:version="0.48.5 r10040"
   sodipodi:docname="whatconference.svg"><metadata
     id="metadata14"><rdf:RDF><cc:Work
         rdf:about=""><dc:format>image/svg+xml</dc:format><dc:type
           rdf:resource="http://purl.org/dc/dcmitype/StillImage" /><dc:title></dc:title></cc:Work></rdf:RDF></metadata><defs
     id="defs12" /><sodipodi:namedview
     pagecolor="#ffffff"
     bordercolor="#666666"
     borderopacity="1"
     objecttolerance="10"
     gridtolerance="10"
     guidetolerance="10"
     inkscape:pageopacity="0"
     inkscape:pageshadow="2"
     inkscape:window-width="1855"
     inkscape:window-height="1056"
     id="namedview10"
     showgrid="false"
     inkscape:zoom="6.675088"
     inkscape:cx="34.052431"
     inkscape:cy="29.754321"
     inkscape:window-x="1985"
     inkscape:window-y="24"
     inkscape:window-maximized="1"
     inkscape:current-layer="Capa_1"
     fit-margin-top="0"
     fit-margin-left="0"
     fit-margin-right="0"
     fit-margin-bottom="0" /><path
     style="fill:#333333;fill-opacity:1;stroke:#353434;stroke-width:0;stroke-linejoin:round;stroke-miterlimit:4;stroke-opacity:1;stroke-dasharray:none"
     d="M 8.96875 0.1875 L 8.96875 79.96875 L 26.6875 62.25 L 71.03125 62.25 L 71.03125 0.1875 L 8.96875 0.1875 z M 34.3125 6.46875 C 35.406296 6.46875 36.509581 6.8845804 37.34375 7.71875 C 37.789923 8.1678073 38.105759 8.6893996 38.3125 9.25 L 32.84375 14.71875 C 32.285072 14.512011 31.761556 14.199058 31.3125 13.75 C 29.644161 12.082623 29.644161 9.3842044 31.3125 7.71875 C 32.146669 6.8845804 33.218704 6.46875 34.3125 6.46875 z M 38.78125 10.40625 L 47.46875 22.1875 L 45.65625 24 L 40.71875 20.34375 L 40.71875 29.84375 L 57.28125 24.25 L 59.65625 31.21875 L 53.8125 33.1875 L 53.8125 54.875 L 26.1875 54.875 L 26.1875 42.53125 L 22.71875 43.71875 L 20.34375 36.71875 L 38.5 30.59375 L 38.5 18.71875 L 33.875 15.3125 L 38.78125 10.40625 z "
     transform="matrix(1.35,0,0,1.35,-8.9999995,-10)"
     id="rect2991" /></svg>