<?xml version="1.0" encoding="UTF-8" standalone="no"?>
<svg
   xmlns:dc="http://purl.org/dc/elements/1.1/"
   xmlns:cc="http://creativecommons.org/ns#"
   xmlns:rdf="http://www.w3.org/1999/02/22-rdf-syntax-ns#"
   xmlns:svg="http://www.w3.org/2000/svg"
   xmlns="http://www.w3.org/2000/svg"
   xmlns:sodipodi="http://sodipodi.sourceforge.net/DTD/sodipodi-0.dtd"
   xmlns:inkscape="http://www.inkscape.org/namespaces/inkscape"
   enable-background="new 0 0 56.693 56.693"
   height="38.292"
   id="Layer_1"
   version="1.1"
   viewBox="0 0 49.561 38.291999"
   width="49.561001"
   xml:space="preserve"
   inkscape:version="0.48.5 r10040"
   sodipodi:docname="www.svg"><metadata
     id="metadata25"><rdf:RDF><cc:Work
         rdf:about=""><dc:format>image/svg+xml</dc:format><dc:type
           rdf:resource="http://purl.org/dc/dcmitype/StillImage" /></cc:Work></rdf:RDF></metadata><defs
     id="defs23" /><sodipodi:namedview
     pagecolor="#ffffff"
     bordercolor="#666666"
     borderopacity="1"
     objecttolerance="10"
     gridtolerance="10"
     guidetolerance="10"
     inkscape:pageopacity="0"
     inkscape:pageshadow="2"
     inkscape:window-width="640"
     inkscape:window-height="480"
     id="namedview21"
     showgrid="false"
     fit-margin-top="0"
     fit-margin-left="0"
     fit-margin-right="0"
     fit-margin-bottom="0"
     inkscape:zoom="4.1627714"
     inkscape:cx="24.8515"
     inkscape:cy="19.7295"
     inkscape:window-x="2910"
     inkscape:window-y="229"
     inkscape:window-maximized="0"
     inkscape:current-layer="Layer_1" /><g
     id="g3"
     transform="translate(-3.495,-9.784)"><path
       d="m 12.456,20.237 c -0.127,-0.12 -0.297,-0.179 -0.512,-0.179 -0.22,0 -0.401,0.059 -0.536,0.179 -0.134,0.117 -0.202,0.251 -0.202,0.399 v 3.115 c 0,0.386 0.037,0.746 0.109,1.077 0.074,0.333 0.202,0.621 0.384,0.862 0.18,0.244 0.423,0.432 0.727,0.567 0.303,0.136 0.681,0.203 1.133,0.203 0.467,0 0.85,-0.085 1.15,-0.252 0.3,-0.168 0.54,-0.396 0.722,-0.684 0.172,0.288 0.406,0.516 0.7,0.684 0.297,0.167 0.687,0.252 1.171,0.252 0.451,0 0.827,-0.067 1.127,-0.203 0.299,-0.135 0.541,-0.324 0.721,-0.567 0.179,-0.241 0.308,-0.529 0.382,-0.862 0.074,-0.332 0.109,-0.691 0.109,-1.077 v -3.115 c 0,-0.148 -0.065,-0.282 -0.196,-0.399 -0.132,-0.12 -0.312,-0.179 -0.542,-0.179 -0.205,0 -0.372,0.059 -0.499,0.179 -0.129,0.117 -0.189,0.251 -0.189,0.399 v 3.165 c 0,0.451 -0.083,0.784 -0.246,0.998 -0.165,0.215 -0.429,0.321 -0.79,0.321 -0.369,0 -0.632,-0.106 -0.788,-0.321 -0.155,-0.214 -0.234,-0.547 -0.234,-0.998 v -3.177 c 0,-0.181 -0.077,-0.319 -0.233,-0.419 -0.155,-0.097 -0.316,-0.147 -0.48,-0.147 -0.073,0 -0.153,0.014 -0.24,0.042 -0.087,0.029 -0.167,0.066 -0.239,0.111 -0.074,0.045 -0.137,0.1 -0.186,0.167 -0.05,0.064 -0.074,0.135 -0.074,0.208 V 23.8 c 0,0.451 -0.078,0.784 -0.234,0.998 -0.156,0.215 -0.42,0.321 -0.787,0.321 -0.37,0 -0.637,-0.106 -0.795,-0.321 -0.16,-0.214 -0.24,-0.547 -0.24,-0.998 v -3.165 c -0.003,-0.147 -0.067,-0.281 -0.193,-0.398 z"
       id="path5"
       inkscape:connector-curvature="0"
       style="fill:#474a56" /><path
       d="m 28.827,20.058 c -0.205,0 -0.372,0.059 -0.499,0.179 -0.126,0.117 -0.19,0.251 -0.19,0.399 v 3.165 c 0,0.451 -0.081,0.784 -0.246,0.998 -0.164,0.215 -0.427,0.321 -0.788,0.321 -0.369,0 -0.632,-0.106 -0.789,-0.321 -0.154,-0.214 -0.233,-0.547 -0.233,-0.998 v -3.177 c 0,-0.181 -0.077,-0.319 -0.233,-0.419 -0.155,-0.097 -0.315,-0.147 -0.481,-0.147 -0.074,0 -0.152,0.014 -0.239,0.042 -0.086,0.029 -0.166,0.066 -0.239,0.111 -0.074,0.045 -0.136,0.1 -0.185,0.167 -0.051,0.064 -0.075,0.135 -0.075,0.208 V 23.8 c 0,0.451 -0.077,0.784 -0.233,0.998 -0.156,0.215 -0.419,0.321 -0.787,0.321 -0.37,0 -0.635,-0.106 -0.796,-0.321 -0.159,-0.214 -0.239,-0.547 -0.239,-0.998 v -3.165 c 0,-0.148 -0.064,-0.282 -0.191,-0.399 -0.129,-0.12 -0.297,-0.179 -0.511,-0.179 -0.223,0 -0.399,0.059 -0.535,0.179 -0.136,0.117 -0.204,0.251 -0.204,0.399 v 3.115 c 0,0.386 0.037,0.746 0.111,1.077 0.072,0.333 0.2,0.621 0.381,0.862 0.182,0.244 0.424,0.432 0.727,0.567 0.305,0.136 0.682,0.203 1.134,0.203 0.468,0 0.852,-0.085 1.151,-0.252 0.299,-0.168 0.54,-0.396 0.721,-0.684 0.172,0.288 0.407,0.516 0.701,0.684 0.295,0.167 0.687,0.252 1.171,0.252 0.45,0 0.826,-0.067 1.126,-0.203 0.299,-0.135 0.539,-0.324 0.721,-0.567 0.182,-0.241 0.309,-0.529 0.383,-0.862 0.073,-0.332 0.11,-0.691 0.11,-1.077 v -3.115 c 0,-0.148 -0.067,-0.282 -0.199,-0.399 -0.134,-0.119 -0.316,-0.178 -0.545,-0.178 z"
       id="path7"
       inkscape:connector-curvature="0"
       style="fill:#474a56" /><path
       d="m 32.306,20.237 c -0.127,-0.12 -0.297,-0.179 -0.51,-0.179 -0.223,0 -0.401,0.059 -0.537,0.179 -0.135,0.117 -0.203,0.251 -0.203,0.399 v 3.115 c 0,0.386 0.037,0.746 0.111,1.077 0.072,0.333 0.2,0.621 0.382,0.862 0.18,0.244 0.421,0.432 0.727,0.567 0.304,0.136 0.681,0.203 1.134,0.203 0.466,0 0.851,-0.085 1.15,-0.252 0.299,-0.168 0.539,-0.396 0.72,-0.684 0.173,0.288 0.407,0.516 0.703,0.684 0.295,0.167 0.685,0.252 1.169,0.252 0.451,0 0.827,-0.067 1.127,-0.203 0.301,-0.135 0.541,-0.323 0.721,-0.567 0.18,-0.241 0.308,-0.529 0.38,-0.862 0.076,-0.332 0.113,-0.691 0.113,-1.077 v -3.115 c 0,-0.148 -0.066,-0.282 -0.199,-0.399 -0.131,-0.12 -0.312,-0.179 -0.54,-0.179 -0.205,0 -0.373,0.059 -0.5,0.179 -0.127,0.117 -0.19,0.251 -0.19,0.399 v 3.165 c 0,0.451 -0.082,0.784 -0.247,0.998 -0.163,0.215 -0.427,0.321 -0.787,0.321 -0.369,0 -0.632,-0.106 -0.788,-0.321 -0.155,-0.214 -0.233,-0.547 -0.233,-0.998 v -3.177 c 0,-0.181 -0.079,-0.319 -0.235,-0.419 -0.154,-0.097 -0.316,-0.147 -0.478,-0.147 -0.074,0 -0.154,0.014 -0.243,0.042 -0.085,0.029 -0.164,0.066 -0.237,0.111 -0.074,0.045 -0.136,0.1 -0.185,0.167 -0.05,0.064 -0.074,0.135 -0.074,0.208 V 23.8 c 0,0.451 -0.079,0.784 -0.235,0.998 -0.154,0.215 -0.419,0.321 -0.786,0.321 -0.37,0 -0.635,-0.106 -0.795,-0.321 C 32.581,24.584 32.5,24.251 32.5,23.8 v -3.165 c -0.003,-0.147 -0.065,-0.281 -0.194,-0.398 z"
       id="path9"
       inkscape:connector-curvature="0"
       style="fill:#474a56" /><path
       d="m 40.976,25.131 c -0.145,0.124 -0.216,0.264 -0.216,0.419 v 0.309 c 0,0.155 0.071,0.296 0.216,0.418 0.143,0.124 0.339,0.184 0.583,0.184 0.223,0 0.406,-0.061 0.55,-0.184 0.142,-0.122 0.215,-0.264 0.215,-0.418 V 25.55 c 0,-0.155 -0.073,-0.295 -0.215,-0.419 -0.144,-0.123 -0.327,-0.184 -0.55,-0.184 -0.244,0 -0.44,0.06 -0.583,0.184 z"
       id="path11"
       inkscape:connector-curvature="0"
       style="fill:#474a56" /><path
       d="m 44.126,17.56 v 11.399 c 0,0.276 0.224,0.5 0.5,0.5 0.276,0 0.5,-0.224 0.5,-0.5 V 17.56 c 0,-0.276 -0.224,-0.5 -0.5,-0.5 -0.277,0 -0.5,0.224 -0.5,0.5 z"
       id="path13"
       inkscape:connector-curvature="0"
       style="fill:#474a56" /><path
       d="m 38.743,41.538 2.655,-0.524 c 0.186,-0.037 0.335,-0.175 0.386,-0.358 0.05,-0.183 -0.008,-0.378 -0.149,-0.505 L 30.89,30.499 c -0.158,-0.143 -0.39,-0.169 -0.576,-0.066 -0.186,0.104 -0.287,0.313 -0.25,0.524 l 2.454,14.066 c 0.031,0.184 0.163,0.334 0.342,0.391 0.173,0.056 0.372,0.009 0.504,-0.123 l 2.125,-2.129 2.654,4.662 c 0.069,0.121 0.185,0.208 0.32,0.239 0.038,0.009 0.076,0.013 0.114,0.013 0.099,0 0.196,-0.029 0.279,-0.085 l 2.724,-1.835 c 0.114,-0.077 0.191,-0.197 0.214,-0.333 0.022,-0.136 -0.012,-0.274 -0.095,-0.384 l -2.956,-3.901 z"
       id="path15"
       inkscape:connector-curvature="0"
       style="fill:#474a56" /><path
       d="M 51.255,32.691 H 37.82 l 4.007,3.6 h 9.429 c 0.994,0 1.8,-0.806 1.8,-1.8 -10e-4,-0.995 -0.806,-1.8 -1.801,-1.8 z"
       id="path17"
       inkscape:connector-curvature="0"
       style="fill:#474a56" /><path
       d="M 7.094,32.691 V 13.384 h 44.161 c 0.994,0 1.8,-0.806 1.8,-1.8 0,-0.994 -0.806,-1.8 -1.8,-1.8 H 5.295 c -0.994,0 -1.8,0.806 -1.8,1.8 v 22.907 c 0,0.994 0.806,1.8 1.8,1.8 H 27.95 l -0.628,-3.6 H 7.094 z"
       id="path19"
       inkscape:connector-curvature="0"
       style="fill:#474a56" /></g></svg>